<svg xmlns="http://www.w3.org/2000/svg" xmlns:xlink="http://www.w3.org/1999/xlink" version="1.1" class="marks" width="972" height="447" viewBox="0 0 972 447"><rect width="972" height="447" fill="white"/><g fill="none" stroke-miterlimit="10" transform="translate(41,10)"><g class="mark-group role-frame root" role="graphics-object" aria-roledescription="group mark container"><g transform="translate(0,0)"><path class="background" aria-hidden="true" d="M0.5,0.5h800v400h-800Z" stroke="#ddd"/><g><g class="mark-group role-axis" aria-hidden="true"><g transform="translate(0.5,400.5)"><path class="background" aria-hidden="true" d="M0,0h0v0h0Z" pointer-events="none"/><g><g class="mark-rule role-axis-grid" pointer-events="none"><line transform="translate(0,-400)" x2="0" y2="400" stroke="#ddd" stroke-width="1" opacity="1"/><line transform="translate(32,-400)" x2="0" y2="400" stroke="#ddd" stroke-width="1" opacity="1"/><line transform="translate(64,-400)" x2="0" y2="400" stroke="#ddd" stroke-width="1" opacity="1"/><line transform="translate(96,-400)" x2="0" y2="400" stroke="#ddd" stroke-width="1" opacity="1"/><line transform="translate(128,-400)" x2="0" y2="400" stroke="#ddd" stroke-width="1" opacity="1"/><line transform="translate(160,-400)" x2="0" y2="400" stroke="#ddd" stroke-width="1" opacity="1"/><line transform="translate(192,-400)" x2="0" y2="400" stroke="#ddd" stroke-width="1" opacity="1"/><line transform="translate(224,-400)" x2="0" y2="400" stroke="#ddd" stroke-width="1" opacity="1"/><line transform="translate(256,-400)" x2="0" y2="400" stroke="#ddd" stroke-width="1" opacity="1"/><line transform="translate(288,-400)" x2="0" y2="400" stroke="#ddd" stroke-width="1" opacity="1"/><line transform="translate(320,-400)" x2="0" y2="400" stroke="#ddd" stroke-width="1" opacity="1"/><line transform="translate(352,-400)" x2="0" y2="400" stroke="#ddd" stroke-width="1" opacity="1"/><line transform="translate(384,-400)" x2="0" y2="400" stroke="#ddd" stroke-width="1" opacity="1"/><line transform="translate(416,-400)" x2="0" y2="400" stroke="#ddd" stroke-width="1" opacity="1"/><line transform="translate(448,-400)" x2="0" y2="400" stroke="#ddd" stroke-width="1" opacity="1"/><line transform="translate(480,-400)" x2="0" y2="400" stroke="#ddd" stroke-width="1" opacity="1"/><line transform="translate(512,-400)" x2="0" y2="400" stroke="#ddd" stroke-width="1" opacity="1"/><line transform="translate(544,-400)" x2="0" y2="400" stroke="#ddd" stroke-width="1" opacity="1"/><line transform="translate(576,-400)" x2="0" y2="400" stroke="#ddd" stroke-width="1" opacity="1"/><line transform="translate(608,-400)" x2="0" y2="400" stroke="#ddd" stroke-width="1" opacity="1"/><line transform="translate(640,-400)" x2="0" y2="400" stroke="#ddd" stroke-width="1" opacity="1"/><line transform="translate(672,-400)" x2="0" y2="400" stroke="#ddd" stroke-width="1" opacity="1"/><line transform="translate(704,-400)" x2="0" y2="400" stroke="#ddd" stroke-width="1" opacity="1"/><line transform="translate(736,-400)" x2="0" y2="400" stroke="#ddd" stroke-width="1" opacity="1"/><line transform="translate(768,-400)" x2="0" y2="400" stroke="#ddd" stroke-width="1" opacity="1"/><line transform="translate(800,-400)" x2="0" y2="400" stroke="#ddd" stroke-width="1" opacity="1"/></g></g><path class="foreground" aria-hidden="true" d="" pointer-events="none" display="none"/></g></g><g class="mark-group role-axis" aria-hidden="true"><g transform="translate(0.5,0.5)"><path class="background" aria-hidden="true" d="M0,0h0v0h0Z" pointer-events="none"/><g><g class="mark-rule role-axis-grid" pointer-events="none"><line transform="translate(0,400)" x2="800" y2="0" stroke="#ddd" stroke-width="1" opacity="1"/><line transform="translate(0,360)" x2="800" y2="0" stroke="#ddd" stroke-width="1" opacity="1"/><line transform="translate(0,320)" x2="800" y2="0" stroke="#ddd" stroke-width="1" opacity="1"/><line transform="translate(0,280)" x2="800" y2="0" stroke="#ddd" stroke-width="1" opacity="1"/><line transform="translate(0,240)" x2="800" y2="0" stroke="#ddd" stroke-width="1" opacity="1"/><line transform="translate(0,200)" x2="800" y2="0" stroke="#ddd" stroke-width="1" opacity="1"/><line transform="translate(0,160)" x2="800" y2="0" stroke="#ddd" stroke-width="1" opacity="1"/><line transform="translate(0,120)" x2="800" y2="0" stroke="#ddd" stroke-width="1" opacity="1"/><line transform="translate(0,80)" x2="800" y2="0" stroke="#ddd" stroke-width="1" opacity="1"/><line transform="translate(0,40)" x2="800" y2="0" stroke="#ddd" stroke-width="1" opacity="1"/><line transform="translate(0,0)" x2="800" y2="0" stroke="#ddd" stroke-width="1" opacity="1"/></g></g><path class="foreground" aria-hidden="true" d="" pointer-events="none" display="none"/></g></g><g class="mark-group role-axis" role="graphics-symbol" aria-roledescription="axis" aria-label="X-axis titled 'Length' for a linear scale with values from 0 to 50"><g transform="translate(0.5,400.5)"><path class="background" aria-hidden="true" d="M0,0h0v0h0Z" pointer-events="none"/><g><g class="mark-rule role-axis-tick" pointer-events="none"><line transform="translate(0,0)" x2="0" y2="5" stroke="#888" stroke-width="1" opacity="1"/><line transform="translate(32,0)" x2="0" y2="5" stroke="#888" stroke-width="1" opacity="1"/><line transform="translate(64,0)" x2="0" y2="5" stroke="#888" stroke-width="1" opacity="1"/><line transform="translate(96,0)" x2="0" y2="5" stroke="#888" stroke-width="1" opacity="1"/><line transform="translate(128,0)" x2="0" y2="5" stroke="#888" stroke-width="1" opacity="1"/><line transform="translate(160,0)" x2="0" y2="5" stroke="#888" stroke-width="1" opacity="1"/><line transform="translate(192,0)" x2="0" y2="5" stroke="#888" stroke-width="1" opacity="1"/><line transform="translate(224,0)" x2="0" y2="5" stroke="#888" stroke-width="1" opacity="1"/><line transform="translate(256,0)" x2="0" y2="5" stroke="#888" stroke-width="1" opacity="1"/><line transform="translate(288,0)" x2="0" y2="5" stroke="#888" stroke-width="1" opacity="1"/><line transform="translate(320,0)" x2="0" y2="5" stroke="#888" stroke-width="1" opacity="1"/><line transform="translate(352,0)" x2="0" y2="5" stroke="#888" stroke-width="1" opacity="1"/><line transform="translate(384,0)" x2="0" y2="5" stroke="#888" stroke-width="1" opacity="1"/><line transform="translate(416,0)" x2="0" y2="5" stroke="#888" stroke-width="1" opacity="1"/><line transform="translate(448,0)" x2="0" y2="5" stroke="#888" stroke-width="1" opacity="1"/><line transform="translate(480,0)" x2="0" y2="5" stroke="#888" stroke-width="1" opacity="1"/><line transform="translate(512,0)" x2="0" y2="5" stroke="#888" stroke-width="1" opacity="1"/><line transform="translate(544,0)" x2="0" y2="5" stroke="#888" stroke-width="1" opacity="1"/><line transform="translate(576,0)" x2="0" y2="5" stroke="#888" stroke-width="1" opacity="1"/><line transform="translate(608,0)" x2="0" y2="5" stroke="#888" stroke-width="1" opacity="1"/><line transform="translate(640,0)" x2="0" y2="5" stroke="#888" stroke-width="1" opacity="1"/><line transform="translate(672,0)" x2="0" y2="5" stroke="#888" stroke-width="1" opacity="1"/><line transform="translate(704,0)" x2="0" y2="5" stroke="#888" stroke-width="1" opacity="1"/><line transform="translate(736,0)" x2="0" y2="5" stroke="#888" stroke-width="1" opacity="1"/><line transform="translate(768,0)" x2="0" y2="5" stroke="#888" stroke-width="1" opacity="1"/><line transform="translate(800,0)" x2="0" y2="5" stroke="#888" stroke-width="1" opacity="1"/></g><g class="mark-text role-axis-label" pointer-events="none"><text text-anchor="start" transform="translate(0,15)" font-family="sans-serif" font-size="10px" fill="#000" opacity="1">0</text><text text-anchor="middle" transform="translate(32,15)" font-family="sans-serif" font-size="10px" fill="#000" opacity="1">2</text><text text-anchor="middle" transform="translate(64,15)" font-family="sans-serif" font-size="10px" fill="#000" opacity="1">4</text><text text-anchor="middle" transform="translate(96,15)" font-family="sans-serif" font-size="10px" fill="#000" opacity="1">6</text><text text-anchor="middle" transform="translate(128,15)" font-family="sans-serif" font-size="10px" fill="#000" opacity="1">8</text><text text-anchor="middle" transform="translate(160,15)" font-family="sans-serif" font-size="10px" fill="#000" opacity="1">10</text><text text-anchor="middle" transform="translate(192,15)" font-family="sans-serif" font-size="10px" fill="#000" opacity="1">12</text><text text-anchor="middle" transform="translate(224.00000000000003,15)" font-family="sans-serif" font-size="10px" fill="#000" opacity="1">14</text><text text-anchor="middle" transform="translate(256,15)" font-family="sans-serif" font-size="10px" fill="#000" opacity="1">16</text><text text-anchor="middle" transform="translate(288,15)" font-family="sans-serif" font-size="10px" fill="#000" opacity="1">18</text><text text-anchor="middle" transform="translate(320,15)" font-family="sans-serif" font-size="10px" fill="#000" opacity="1">20</text><text text-anchor="middle" transform="translate(352,15)" font-family="sans-serif" font-size="10px" fill="#000" opacity="1">22</text><text text-anchor="middle" transform="translate(384,15)" font-family="sans-serif" font-size="10px" fill="#000" opacity="1">24</text><text text-anchor="middle" transform="translate(416,15)" font-family="sans-serif" font-size="10px" fill="#000" opacity="1">26</text><text text-anchor="middle" transform="translate(448.00000000000006,15)" font-family="sans-serif" font-size="10px" fill="#000" opacity="1">28</text><text text-anchor="middle" transform="translate(480,15)" font-family="sans-serif" font-size="10px" fill="#000" opacity="1">30</text><text text-anchor="middle" transform="translate(512,15)" font-family="sans-serif" font-size="10px" fill="#000" opacity="1">32</text><text text-anchor="middle" transform="translate(544,15)" font-family="sans-serif" font-size="10px" fill="#000" opacity="1">34</text><text text-anchor="middle" transform="translate(576,15)" font-family="sans-serif" font-size="10px" fill="#000" opacity="1">36</text><text text-anchor="middle" transform="translate(608,15)" font-family="sans-serif" font-size="10px" fill="#000" opacity="1">38</text><text text-anchor="middle" transform="translate(640,15)" font-family="sans-serif" font-size="10px" fill="#000" opacity="1">40</text><text text-anchor="middle" transform="translate(672,15)" font-family="sans-serif" font-size="10px" fill="#000" opacity="1">42</text><text text-anchor="middle" transform="translate(704,15)" font-family="sans-serif" font-size="10px" fill="#000" opacity="1">44</text><text text-anchor="middle" transform="translate(736,15)" font-family="sans-serif" font-size="10px" fill="#000" opacity="1">46</text><text text-anchor="middle" transform="translate(768,15)" font-family="sans-serif" font-size="10px" fill="#000" opacity="1">48</text><text text-anchor="end" transform="translate(800,15)" font-family="sans-serif" font-size="10px" fill="#000" opacity="1">50</text></g><g class="mark-rule role-axis-domain" pointer-events="none"><line transform="translate(0,0)" x2="800" y2="0" stroke="#888" stroke-width="1" opacity="1"/></g><g class="mark-text role-axis-title" pointer-events="none"><text text-anchor="middle" transform="translate(400,30)" font-family="sans-serif" font-size="11px" font-weight="bold" fill="#000" opacity="1">Length</text></g></g><path class="foreground" aria-hidden="true" d="" pointer-events="none" display="none"/></g></g><g class="mark-group role-axis" role="graphics-symbol" aria-roledescription="axis" aria-label="Y-axis titled 'value' for a linear scale with values from 0.0 to 1.0"><g transform="translate(0.5,0.5)"><path class="background" aria-hidden="true" d="M0,0h0v0h0Z" pointer-events="none"/><g><g class="mark-rule role-axis-tick" pointer-events="none"><line transform="translate(0,400)" x2="-5" y2="0" stroke="#888" stroke-width="1" opacity="1"/><line transform="translate(0,360)" x2="-5" y2="0" stroke="#888" stroke-width="1" opacity="1"/><line transform="translate(0,320)" x2="-5" y2="0" stroke="#888" stroke-width="1" opacity="1"/><line transform="translate(0,280)" x2="-5" y2="0" stroke="#888" stroke-width="1" opacity="1"/><line transform="translate(0,240)" x2="-5" y2="0" stroke="#888" stroke-width="1" opacity="1"/><line transform="translate(0,200)" x2="-5" y2="0" stroke="#888" stroke-width="1" opacity="1"/><line transform="translate(0,160)" x2="-5" y2="0" stroke="#888" stroke-width="1" opacity="1"/><line transform="translate(0,120)" x2="-5" y2="0" stroke="#888" stroke-width="1" opacity="1"/><line transform="translate(0,80)" x2="-5" y2="0" stroke="#888" stroke-width="1" opacity="1"/><line transform="translate(0,40)" x2="-5" y2="0" stroke="#888" stroke-width="1" opacity="1"/><line transform="translate(0,0)" x2="-5" y2="0" stroke="#888" stroke-width="1" opacity="1"/></g><g class="mark-text role-axis-label" pointer-events="none"><text text-anchor="end" transform="translate(-7,403)" font-family="sans-serif" font-size="10px" fill="#000" opacity="1">0.0</text><text text-anchor="end" transform="translate(-7,363)" font-family="sans-serif" font-size="10px" fill="#000" opacity="1">0.1</text><text text-anchor="end" transform="translate(-7,323)" font-family="sans-serif" font-size="10px" fill="#000" opacity="1">0.2</text><text text-anchor="end" transform="translate(-7,283)" font-family="sans-serif" font-size="10px" fill="#000" opacity="1">0.3</text><text text-anchor="end" transform="translate(-7,243)" font-family="sans-serif" font-size="10px" fill="#000" opacity="1">0.4</text><text text-anchor="end" transform="translate(-7,203)" font-family="sans-serif" font-size="10px" fill="#000" opacity="1">0.5</text><text text-anchor="end" transform="translate(-7,163)" font-family="sans-serif" font-size="10px" fill="#000" opacity="1">0.6</text><text text-anchor="end" transform="translate(-7,123.00000000000001)" font-family="sans-serif" font-size="10px" fill="#000" opacity="1">0.7</text><text text-anchor="end" transform="translate(-7,82.99999999999999)" font-family="sans-serif" font-size="10px" fill="#000" opacity="1">0.8</text><text text-anchor="end" transform="translate(-7,42.99999999999999)" font-family="sans-serif" font-size="10px" fill="#000" opacity="1">0.9</text><text text-anchor="end" transform="translate(-7,3)" font-family="sans-serif" font-size="10px" fill="#000" opacity="1">1.0</text></g><g class="mark-rule role-axis-domain" pointer-events="none"><line transform="translate(0,400)" x2="0" y2="-400" stroke="#888" stroke-width="1" opacity="1"/></g><g class="mark-text role-axis-title" pointer-events="none"><text text-anchor="middle" transform="translate(-24.727272987365723,200) rotate(-90) translate(0,-2)" font-family="sans-serif" font-size="11px" font-weight="bold" fill="#000" opacity="1">value</text></g></g><path class="foreground" aria-hidden="true" d="" pointer-events="none" display="none"/></g></g><g class="mark-group role-scope pathgroup" role="graphics-object" aria-roledescription="group mark container"><g transform="translate(0,0)"><path class="background" aria-hidden="true" d="M0,0h800v400h-800Z"/><g><g class="mark-area role-mark marks" role="graphics-object" aria-roledescription="area mark container"><path aria-label="Sentiment: Negative; Length: 1; value: 0.0119170044159" role="graphics-symbol" aria-roledescription="area mark" d="M16,0L32,0L48,0L64,0L80,0L96,0L112.00000000000001,0L128,0L144,0L160,0L176,4.440892098500626e-14L192,0L208,0L224.00000000000003,0L240,0L256,0L272,0L288,0L304,0L320,0L336,0L352,0L368,0L384,4.440892098500626e-14L400,0L416,0L432,0L448.00000000000006,0L463.99999999999994,0L480,0L496,0L512,0L528,0L544,0L560,4.440892098500626e-14L576,0L592,0L608,0L624,0L640,0L656,0L672,0L688,0L704,0L720,0L736,0L752,0L768,0L784,0L784,44.444444444444464L768,61.5384615384615L752,61.5384615384615L736,44.444444444444464L720,14.285714285714324L704,47.058823529411775L688,29.268292682926813L672,45.45454545454546L656,41.79104477611939L640,47.76119402985075L624,53.33333333333332L608,41.73913043478259L592,44.06779661016951L576,54.28571428571431L560,32.08556149732624L544,48.068669527896986L528,63.82978723404258L512,46.62576687116564L496,54.90196078431371L480,65.7963446475196L463.99999999999994,62.443438914027105L448.00000000000006,50.35460992907801L432,52.98869143780287L416,54.33526011560694L400,53.84615384615383L384,50.05393743257822L368,45.155221072436504L352,51.74468085106385L336,47.39336492890995L320,35.1931330472103L304,42.784810126582286L288,39.02976846747519L272,39.99999999999994L256,30.613185799907818L240,34.21262989608316L224.00000000000003,34.103019538188306L208,32.86082474226806L192,31.005110732538334L176,27.35042735042739L160,25.554106910039074L144,25.556189389617813L128,21.12790508694946L112.00000000000001,20.407612363341833L96,16.873671254335942L80,15.574963609898074L64,13.044393014937938L48,9.324452901998104L32,6.255778120184896L16,4.766801766378315Z" fill="#4c78a8" opacity="0.7"/></g></g><path class="foreground" aria-hidden="true" d="" display="none"/></g><g transform="translate(0,0)"><path class="background" aria-hidden="true" d="M0,0h800v400h-800Z"/><g><g class="mark-area role-mark marks" role="graphics-object" aria-roledescription="area mark container"><path aria-label="Sentiment: Somewhat Negative; Length: 1; value: 0.115842961708" role="graphics-symbol" aria-roledescription="area mark" d="M16,307.20464581695L32,289.96918335901387L48,270.8277830637488L64,253.06122448979593L80,243.30422125181948L96,231.1290142105852L112.00000000000001,224.6996895667431L128,217.77994474240208L144,204.0692146795969L160,197.91395045632333L176,200.30165912518854L192,198.0692788188529L208,195.7474226804124L224.00000000000003,193.39253996447604L240,194.88409272581936L256,182.38819732595667L272,193.26530612244898L288,185.88754134509372L304,190.8860759493671L320,185.69384835479258L336,195.89257503949446L352,193.0212765957447L368,189.27563499529634L384,193.74325782092777L400,179.48717948717947L416,192.48554913294797L432,185.46042003231017L448.00000000000006,187.2340425531915L463.99999999999994,188.23529411764704L480,183.8120104438642L496,177.03081232492997L512,203.680981595092L528,182.97872340425533L544,188.8412017167382L560,164.70588235294116L576,182.85714285714286L592,183.05084745762713L608,177.3913043478261L624,159.99999999999997L640,161.1940298507463L656,179.1044776119403L672,163.63636363636363L688,204.8780487804878L704,223.52941176470588L720,128.5714285714286L736,177.77777777777777L752,215.3846153846154L768,184.61538461538458L784,88.88888888888893L784,88.88888888888893L768,276.9230769230769L752,276.9230769230769L736,222.22222222222223L720,228.57142857142856L704,294.11764705882354L688,292.6829268292683L672,272.72727272727275L656,292.53731343283584L640,256.7164179104478L624,266.66666666666663L608,281.73913043478257L592,271.18644067796606L576,257.1428571428571L560,260.96256684491976L544,295.2789699570816L528,282.26950354609926L512,300.6134969325153L496,281.23249299719885L480,290.3394255874674L463.99999999999994,295.0226244343892L448.00000000000006,292.1985815602837L432,288.8529886914378L416,293.64161849710985L400,275.38461538461536L384,281.3376483279396L368,293.1326434619003L352,292.0851063829788L336,295.4186413902054L320,294.7067238912732L304,292.9113924050633L288,295.25909592061737L272,298.57142857142856L256,292.48501613646846L240,294.64428457234214L224.00000000000003,297.5488454706927L208,298.45360824742266L192,304.5996592844975L176,301.2569130216189L160,298.0443285528031L144,297.77524244152886L128,303.26669917113605L112.00000000000001,304.92644081522474L96,304.08414456752826L80,309.315866084425L64,313.7386913528298L48,321.42721217887726L32,334.86902927580894L16,353.5418305002722Z" fill="#72b7b2" opacity="0.7"/></g></g><path class="foreground" aria-hidden="true" d="" display="none"/></g><g transform="translate(0,0)"><path class="background" aria-hidden="true" d="M0,0h800v400h-800Z"/><g><g class="mark-area role-mark marks" role="graphics-object" aria-roledescription="area mark container"><path aria-label="Sentiment: Neutral; Length: 1; value: 0.742786280322" role="graphics-symbol" aria-roledescription="area mark" d="M16,4.766801766378315L32,6.255778120184896L48,9.324452901998104L64,13.044393014937938L80,15.574963609898074L96,16.873671254335942L112.00000000000001,20.407612363341833L128,21.12790508694946L144,25.556189389617813L160,25.554106910039074L176,27.35042735042739L192,31.005110732538334L208,32.86082474226806L224.00000000000003,34.103019538188306L240,34.21262989608316L256,30.613185799907818L272,39.99999999999994L288,39.02976846747519L304,42.784810126582286L320,35.1931330472103L336,47.39336492890995L352,51.74468085106385L368,45.155221072436504L384,50.05393743257822L400,53.84615384615383L416,54.33526011560694L432,52.98869143780287L448.00000000000006,50.35460992907801L463.99999999999994,62.443438914027105L480,65.7963446475196L496,54.90196078431371L512,46.62576687116564L528,63.82978723404258L544,48.068669527896986L560,32.08556149732624L576,54.28571428571431L592,44.06779661016951L608,41.73913043478259L624,53.33333333333332L640,47.76119402985075L656,41.79104477611939L672,45.45454545454546L688,29.268292682926813L704,47.058823529411775L720,14.285714285714324L736,44.444444444444464L752,61.5384615384615L768,61.5384615384615L784,44.444444444444464L784,88.88888888888893L768,123.07692307692308L752,153.84615384615384L736,66.6666666666667L720,28.571428571428605L704,176.47058823529412L688,107.31707317073172L672,109.09090909090908L656,107.46268656716418L640,113.43283582089552L624,117.33333333333331L608,118.26086956521738L592,125.42372881355934L576,125.7142857142857L560,89.83957219251337L544,142.4892703862661L528,124.822695035461L512,126.3803680981595L496,125.49019607843135L480,139.94778067885116L463.99999999999994,140.27149321266967L448.00000000000006,131.91489361702128L432,138.2875605815832L416,146.82080924855492L400,136.92307692307693L384,147.57281553398062L368,145.6255879586077L352,148.42553191489364L336,148.81516587677726L320,136.19456366237483L304,147.59493670886076L288,142.44762954796028L272,147.34693877551018L256,141.263254956201L240,155.87529976019187L224.00000000000003,153.8898756660746L208,160.30927835051548L192,164.33844406587167L176,167.9235796882856L160,166.7101260321599L144,174.93820117893137L128,188.330895498131L112.00000000000001,195.59994601160747L96,205.25903547051584L80,219.86899563318775L64,232.49877270495824L48,254.00570884871553L32,278.2126348228043L16,301.88131389510613Z" fill="#f58518" opacity="0.7"/></g></g><path class="foreground" aria-hidden="true" d="" display="none"/></g><g transform="translate(0,0)"><path class="background" aria-hidden="true" d="M0,0h800v400h-800Z"/><g><g class="mark-area role-mark marks" role="graphics-object" aria-roledescription="area mark container"><path aria-label="Sentiment: Somewhat Positive; Length: 1; value: 0.116145423749" role="graphics-symbol" aria-roledescription="area mark" d="M16,353.5418305002722L32,334.86902927580894L48,321.42721217887726L64,313.7386913528298L80,309.315866084425L96,304.08414456752826L112.00000000000001,304.92644081522474L128,303.26669917113605L144,297.77524244152886L160,298.0443285528031L176,301.2569130216189L192,304.5996592844975L208,298.45360824742266L224.00000000000003,297.5488454706927L240,294.64428457234214L256,292.48501613646846L272,298.57142857142856L288,295.25909592061737L304,292.9113924050633L320,294.7067238912732L336,295.4186413902054L352,292.0851063829788L368,293.1326434619003L384,281.3376483279396L400,275.38461538461536L416,293.64161849710985L432,288.8529886914378L448.00000000000006,292.1985815602837L463.99999999999994,295.0226244343892L480,290.3394255874674L496,281.23249299719885L512,300.6134969325153L528,282.26950354609926L544,295.2789699570816L560,260.96256684491976L576,257.1428571428571L592,271.18644067796606L608,281.73913043478257L624,266.66666666666663L640,256.7164179104478L656,292.53731343283584L672,272.72727272727275L688,292.6829268292683L704,294.11764705882354L720,228.57142857142856L736,222.22222222222223L752,276.9230769230769L768,276.9230769230769L784,88.88888888888893L784,400L768,400L752,400L736,400L720,400L704,400L688,400L672,400L656,400L640,400L624,400L608,400L592,400L576,400L560,400L544,400L528,400L512,400L496,400L480,400L463.99999999999994,400L448.00000000000006,400L432,400L416,400L400,400L384,400L368,400L352,400L336,400L320,400L304,400L288,400L272,400L256,400L240,400L224.00000000000003,400L208,400L192,400L176,400L160,400L144,400L128,400L112.00000000000001,400L96,400L80,400L64,400L48,400L32,400L16,400Z" fill="#54a24b" opacity="0.7"/></g></g><path class="foreground" aria-hidden="true" d="" display="none"/></g><g transform="translate(0,0)"><path class="background" aria-hidden="true" d="M0,0h800v400h-800Z"/><g><g class="mark-area role-mark marks" role="graphics-object" aria-roledescription="area mark container"><path aria-label="Sentiment: Positive; Length: 1; value: 0.0133083298046" role="graphics-symbol" aria-roledescription="area mark" d="M16,301.88131389510613L32,278.2126348228043L48,254.00570884871553L64,232.49877270495824L80,219.86899563318775L96,205.25903547051584L112.00000000000001,195.59994601160747L128,188.330895498131L144,174.93820117893137L160,166.7101260321599L176,167.9235796882856L192,164.33844406587167L208,160.30927835051548L224.00000000000003,153.8898756660746L240,155.87529976019187L256,141.263254956201L272,147.34693877551018L288,142.44762954796028L304,147.59493670886076L320,136.19456366237483L336,148.81516587677726L352,148.42553191489364L368,145.6255879586077L384,147.57281553398062L400,136.92307692307693L416,146.82080924855492L432,138.2875605815832L448.00000000000006,131.91489361702128L463.99999999999994,140.27149321266967L480,139.94778067885116L496,125.49019607843137L512,126.3803680981595L528,124.822695035461L544,142.4892703862661L560,89.83957219251337L576,125.71428571428571L592,125.42372881355934L608,118.26086956521738L624,117.33333333333333L640,113.43283582089553L656,107.46268656716418L672,109.09090909090908L688,107.31707317073172L704,176.47058823529412L720,28.571428571428605L736,66.6666666666667L752,153.84615384615384L768,123.07692307692308L784,88.88888888888893L784,88.88888888888893L768,184.61538461538458L752,215.3846153846154L736,177.77777777777777L720,128.5714285714286L704,223.52941176470588L688,204.8780487804878L672,163.63636363636363L656,179.1044776119403L640,161.1940298507463L624,159.99999999999997L608,177.3913043478261L592,183.05084745762713L576,182.85714285714286L560,164.70588235294116L544,188.8412017167382L528,182.97872340425533L512,203.680981595092L496,177.03081232492997L480,183.8120104438642L463.99999999999994,188.23529411764704L448.00000000000006,187.2340425531915L432,185.46042003231017L416,192.48554913294797L400,179.48717948717947L384,193.74325782092777L368,189.27563499529634L352,193.0212765957447L336,195.89257503949446L320,185.69384835479258L304,190.8860759493671L288,185.88754134509372L272,193.26530612244898L256,182.38819732595667L240,194.88409272581936L224.00000000000003,193.39253996447604L208,195.7474226804124L192,198.0692788188529L176,200.30165912518854L160,197.91395045632333L144,204.0692146795969L128,217.77994474240208L112.00000000000001,224.6996895667431L96,231.1290142105852L80,243.30422125181948L64,253.06122448979593L48,270.8277830637488L32,289.96918335901387L16,307.20464581695Z" fill="#e45756" opacity="0.7"/></g></g><path class="foreground" aria-hidden="true" d="" display="none"/></g></g><g class="mark-group role-legend" role="graphics-symbol" aria-roledescription="legend" aria-label="Symbol legend titled 'Sentiment' for fill color with 5 values: Negative, Neutral, Positive, Somewhat Negative, Somewhat Positive"><g transform="translate(818,0)"><path class="background" aria-hidden="true" d="M0,0h108v79h-108Z" pointer-events="none"/><g><g class="mark-group role-legend-entry"><g transform="translate(0,16)"><path class="background" aria-hidden="true" d="M0,0h0v0h0Z" pointer-events="none"/><g><g class="mark-group role-scope" role="graphics-object" aria-roledescription="group mark container"><g transform="translate(0,0)"><path class="background" aria-hidden="true" d="M0,0h107.29090881347656v11h-107.29090881347656Z" pointer-events="none" opacity="1"/><g><g class="mark-symbol role-legend-symbol" pointer-events="none"><path transform="translate(6,6)" d="M5,0A5,5,0,1,1,-5,0A5,5,0,1,1,5,0" fill="#4c78a8" stroke-width="1.5" opacity="0.7"/></g><g class="mark-text role-legend-label" pointer-events="none"><text text-anchor="start" transform="translate(16,9)" font-family="sans-serif" font-size="10px" fill="#000" opacity="1">Negative</text></g></g><path class="foreground" aria-hidden="true" d="" pointer-events="none" display="none"/></g><g transform="translate(0,13)"><path class="background" aria-hidden="true" d="M0,0h107.29090881347656v11h-107.29090881347656Z" pointer-events="none" opacity="1"/><g><g class="mark-symbol role-legend-symbol" pointer-events="none"><path transform="translate(6,6)" d="M5,0A5,5,0,1,1,-5,0A5,5,0,1,1,5,0" fill="#f58518" stroke-width="1.5" opacity="0.7"/></g><g class="mark-text role-legend-label" pointer-events="none"><text text-anchor="start" transform="translate(16,9)" font-family="sans-serif" font-size="10px" fill="#000" opacity="1">Neutral</text></g></g><path class="foreground" aria-hidden="true" d="" pointer-events="none" display="none"/></g><g transform="translate(0,26)"><path class="background" aria-hidden="true" d="M0,0h107.29090881347656v11h-107.29090881347656Z" pointer-events="none" opacity="1"/><g><g class="mark-symbol role-legend-symbol" pointer-events="none"><path transform="translate(6,6)" d="M5,0A5,5,0,1,1,-5,0A5,5,0,1,1,5,0" fill="#e45756" stroke-width="1.5" opacity="0.7"/></g><g class="mark-text role-legend-label" pointer-events="none"><text text-anchor="start" transform="translate(16,9)" font-family="sans-serif" font-size="10px" fill="#000" opacity="1">Positive</text></g></g><path class="foreground" aria-hidden="true" d="" pointer-events="none" display="none"/></g><g transform="translate(0,39)"><path class="background" aria-hidden="true" d="M0,0h107.29090881347656v11h-107.29090881347656Z" pointer-events="none" opacity="1"/><g><g class="mark-symbol role-legend-symbol" pointer-events="none"><path transform="translate(6,6)" d="M5,0A5,5,0,1,1,-5,0A5,5,0,1,1,5,0" fill="#72b7b2" stroke-width="1.5" opacity="0.7"/></g><g class="mark-text role-legend-label" pointer-events="none"><text text-anchor="start" transform="translate(16,9)" font-family="sans-serif" font-size="10px" fill="#000" opacity="1">Somewhat Negative</text></g></g><path class="foreground" aria-hidden="true" d="" pointer-events="none" display="none"/></g><g transform="translate(0,52)"><path class="background" aria-hidden="true" d="M0,0h107.29090881347656v11h-107.29090881347656Z" pointer-events="none" opacity="1"/><g><g class="mark-symbol role-legend-symbol" pointer-events="none"><path transform="translate(6,6)" d="M5,0A5,5,0,1,1,-5,0A5,5,0,1,1,5,0" fill="#54a24b" stroke-width="1.5" opacity="0.7"/></g><g class="mark-text role-legend-label" pointer-events="none"><text text-anchor="start" transform="translate(16,9)" font-family="sans-serif" font-size="10px" fill="#000" opacity="1">Somewhat Positive</text></g></g><path class="foreground" aria-hidden="true" d="" pointer-events="none" display="none"/></g></g></g><path class="foreground" aria-hidden="true" d="" pointer-events="none" display="none"/></g></g><g class="mark-text role-legend-title" pointer-events="none"><text text-anchor="start" transform="translate(0,9)" font-family="sans-serif" font-size="11px" font-weight="bold" fill="#000" opacity="1">Sentiment</text></g></g><path class="foreground" aria-hidden="true" d="" pointer-events="none" display="none"/></g></g></g><path class="foreground" aria-hidden="true" d="" display="none"/></g></g></g></svg>