<svg xmlns="http://www.w3.org/2000/svg" xmlns:xlink="http://www.w3.org/1999/xlink" version="1.1" class="marks" width="772" height="347" viewBox="0 0 772 347"><rect width="772" height="347" fill="white"/><g fill="none" stroke-miterlimit="10" transform="translate(41,10)"><g class="mark-group role-frame root" role="graphics-object" aria-roledescription="group mark container"><g transform="translate(0,0)"><path class="background" aria-hidden="true" d="M0.5,0.5h600v300h-600Z" stroke="#ddd"/><g><g class="mark-group role-axis" aria-hidden="true"><g transform="translate(0.5,300.5)"><path class="background" aria-hidden="true" d="M0,0h0v0h0Z" pointer-events="none"/><g><g class="mark-rule role-axis-grid" pointer-events="none"><line transform="translate(0,-300)" x2="0" y2="300" stroke="#ddd" stroke-width="1" opacity="1"/><line transform="translate(60,-300)" x2="0" y2="300" stroke="#ddd" stroke-width="1" opacity="1"/><line transform="translate(120,-300)" x2="0" y2="300" stroke="#ddd" stroke-width="1" opacity="1"/><line transform="translate(180,-300)" x2="0" y2="300" stroke="#ddd" stroke-width="1" opacity="1"/><line transform="translate(240,-300)" x2="0" y2="300" stroke="#ddd" stroke-width="1" opacity="1"/><line transform="translate(300,-300)" x2="0" y2="300" stroke="#ddd" stroke-width="1" opacity="1"/><line transform="translate(360,-300)" x2="0" y2="300" stroke="#ddd" stroke-width="1" opacity="1"/><line transform="translate(420,-300)" x2="0" y2="300" stroke="#ddd" stroke-width="1" opacity="1"/><line transform="translate(480,-300)" x2="0" y2="300" stroke="#ddd" stroke-width="1" opacity="1"/><line transform="translate(540,-300)" x2="0" y2="300" stroke="#ddd" stroke-width="1" opacity="1"/><line transform="translate(600,-300)" x2="0" y2="300" stroke="#ddd" stroke-width="1" opacity="1"/></g></g><path class="foreground" aria-hidden="true" d="" pointer-events="none" display="none"/></g></g><g class="mark-group role-axis" aria-hidden="true"><g transform="translate(0.5,0.5)"><path class="background" aria-hidden="true" d="M0,0h0v0h0Z" pointer-events="none"/><g><g class="mark-rule role-axis-grid" pointer-events="none"><line transform="translate(0,300)" x2="600" y2="0" stroke="#ddd" stroke-width="1" opacity="1"/><line transform="translate(0,270)" x2="600" y2="0" stroke="#ddd" stroke-width="1" opacity="1"/><line transform="translate(0,240)" x2="600" y2="0" stroke="#ddd" stroke-width="1" opacity="1"/><line transform="translate(0,210)" x2="600" y2="0" stroke="#ddd" stroke-width="1" opacity="1"/><line transform="translate(0,180)" x2="600" y2="0" stroke="#ddd" stroke-width="1" opacity="1"/><line transform="translate(0,150)" x2="600" y2="0" stroke="#ddd" stroke-width="1" opacity="1"/><line transform="translate(0,120)" x2="600" y2="0" stroke="#ddd" stroke-width="1" opacity="1"/><line transform="translate(0,90)" x2="600" y2="0" stroke="#ddd" stroke-width="1" opacity="1"/><line transform="translate(0,60)" x2="600" y2="0" stroke="#ddd" stroke-width="1" opacity="1"/><line transform="translate(0,30)" x2="600" y2="0" stroke="#ddd" stroke-width="1" opacity="1"/><line transform="translate(0,0)" x2="600" y2="0" stroke="#ddd" stroke-width="1" opacity="1"/></g></g><path class="foreground" aria-hidden="true" d="" pointer-events="none" display="none"/></g></g><g class="mark-group role-axis" role="graphics-symbol" aria-roledescription="axis" aria-label="X-axis titled 'Length' for a linear scale with values from 0 to 50"><g transform="translate(0.5,300.5)"><path class="background" aria-hidden="true" d="M0,0h0v0h0Z" pointer-events="none"/><g><g class="mark-rule role-axis-tick" pointer-events="none"><line transform="translate(0,0)" x2="0" y2="5" stroke="#888" stroke-width="1" opacity="1"/><line transform="translate(60,0)" x2="0" y2="5" stroke="#888" stroke-width="1" opacity="1"/><line transform="translate(120,0)" x2="0" y2="5" stroke="#888" stroke-width="1" opacity="1"/><line transform="translate(180,0)" x2="0" y2="5" stroke="#888" stroke-width="1" opacity="1"/><line transform="translate(240,0)" x2="0" y2="5" stroke="#888" stroke-width="1" opacity="1"/><line transform="translate(300,0)" x2="0" y2="5" stroke="#888" stroke-width="1" opacity="1"/><line transform="translate(360,0)" x2="0" y2="5" stroke="#888" stroke-width="1" opacity="1"/><line transform="translate(420,0)" x2="0" y2="5" stroke="#888" stroke-width="1" opacity="1"/><line transform="translate(480,0)" x2="0" y2="5" stroke="#888" stroke-width="1" opacity="1"/><line transform="translate(540,0)" x2="0" y2="5" stroke="#888" stroke-width="1" opacity="1"/><line transform="translate(600,0)" x2="0" y2="5" stroke="#888" stroke-width="1" opacity="1"/></g><g class="mark-text role-axis-label" pointer-events="none"><text text-anchor="start" transform="translate(0,15)" font-family="sans-serif" font-size="10px" fill="#000" opacity="1">0</text><text text-anchor="middle" transform="translate(60,15)" font-family="sans-serif" font-size="10px" fill="#000" opacity="1">5</text><text text-anchor="middle" transform="translate(120,15)" font-family="sans-serif" font-size="10px" fill="#000" opacity="1">10</text><text text-anchor="middle" transform="translate(180,15)" font-family="sans-serif" font-size="10px" fill="#000" opacity="1">15</text><text text-anchor="middle" transform="translate(240,15)" font-family="sans-serif" font-size="10px" fill="#000" opacity="1">20</text><text text-anchor="middle" transform="translate(300,15)" font-family="sans-serif" font-size="10px" fill="#000" opacity="1">25</text><text text-anchor="middle" transform="translate(360,15)" font-family="sans-serif" font-size="10px" fill="#000" opacity="1">30</text><text text-anchor="middle" transform="translate(420,15)" font-family="sans-serif" font-size="10px" fill="#000" opacity="1">35</text><text text-anchor="middle" transform="translate(480,15)" font-family="sans-serif" font-size="10px" fill="#000" opacity="1">40</text><text text-anchor="middle" transform="translate(540,15)" font-family="sans-serif" font-size="10px" fill="#000" opacity="1">45</text><text text-anchor="end" transform="translate(600,15)" font-family="sans-serif" font-size="10px" fill="#000" opacity="1">50</text></g><g class="mark-rule role-axis-domain" pointer-events="none"><line transform="translate(0,0)" x2="600" y2="0" stroke="#888" stroke-width="1" opacity="1"/></g><g class="mark-text role-axis-title" pointer-events="none"><text text-anchor="middle" transform="translate(300,30)" font-family="sans-serif" font-size="11px" font-weight="bold" fill="#000" opacity="1">Length</text></g></g><path class="foreground" aria-hidden="true" d="" pointer-events="none" display="none"/></g></g><g class="mark-group role-axis" role="graphics-symbol" aria-roledescription="axis" aria-label="Y-axis titled 'value' for a linear scale with values from 0.0 to 1.0"><g transform="translate(0.5,0.5)"><path class="background" aria-hidden="true" d="M0,0h0v0h0Z" pointer-events="none"/><g><g class="mark-rule role-axis-tick" pointer-events="none"><line transform="translate(0,300)" x2="-5" y2="0" stroke="#888" stroke-width="1" opacity="1"/><line transform="translate(0,270)" x2="-5" y2="0" stroke="#888" stroke-width="1" opacity="1"/><line transform="translate(0,240)" x2="-5" y2="0" stroke="#888" stroke-width="1" opacity="1"/><line transform="translate(0,210)" x2="-5" y2="0" stroke="#888" stroke-width="1" opacity="1"/><line transform="translate(0,180)" x2="-5" y2="0" stroke="#888" stroke-width="1" opacity="1"/><line transform="translate(0,150)" x2="-5" y2="0" stroke="#888" stroke-width="1" opacity="1"/><line transform="translate(0,120)" x2="-5" y2="0" stroke="#888" stroke-width="1" opacity="1"/><line transform="translate(0,90)" x2="-5" y2="0" stroke="#888" stroke-width="1" opacity="1"/><line transform="translate(0,60)" x2="-5" y2="0" stroke="#888" stroke-width="1" opacity="1"/><line transform="translate(0,30)" x2="-5" y2="0" stroke="#888" stroke-width="1" opacity="1"/><line transform="translate(0,0)" x2="-5" y2="0" stroke="#888" stroke-width="1" opacity="1"/></g><g class="mark-text role-axis-label" pointer-events="none"><text text-anchor="end" transform="translate(-7,303)" font-family="sans-serif" font-size="10px" fill="#000" opacity="1">0.0</text><text text-anchor="end" transform="translate(-7,273)" font-family="sans-serif" font-size="10px" fill="#000" opacity="1">0.1</text><text text-anchor="end" transform="translate(-7,243)" font-family="sans-serif" font-size="10px" fill="#000" opacity="1">0.2</text><text text-anchor="end" transform="translate(-7,213)" font-family="sans-serif" font-size="10px" fill="#000" opacity="1">0.3</text><text text-anchor="end" transform="translate(-7,183)" font-family="sans-serif" font-size="10px" fill="#000" opacity="1">0.4</text><text text-anchor="end" transform="translate(-7,153)" font-family="sans-serif" font-size="10px" fill="#000" opacity="1">0.5</text><text text-anchor="end" transform="translate(-7,123)" font-family="sans-serif" font-size="10px" fill="#000" opacity="1">0.6</text><text text-anchor="end" transform="translate(-7,93.00000000000001)" font-family="sans-serif" font-size="10px" fill="#000" opacity="1">0.7</text><text text-anchor="end" transform="translate(-7,62.999999999999986)" font-family="sans-serif" font-size="10px" fill="#000" opacity="1">0.8</text><text text-anchor="end" transform="translate(-7,32.99999999999999)" font-family="sans-serif" font-size="10px" fill="#000" opacity="1">0.9</text><text text-anchor="end" transform="translate(-7,3)" font-family="sans-serif" font-size="10px" fill="#000" opacity="1">1.0</text></g><g class="mark-rule role-axis-domain" pointer-events="none"><line transform="translate(0,300)" x2="0" y2="-300" stroke="#888" stroke-width="1" opacity="1"/></g><g class="mark-text role-axis-title" pointer-events="none"><text text-anchor="middle" transform="translate(-24.727272987365723,150) rotate(-90) translate(0,-2)" font-family="sans-serif" font-size="11px" font-weight="bold" fill="#000" opacity="1">value</text></g></g><path class="foreground" aria-hidden="true" d="" pointer-events="none" display="none"/></g></g><g class="mark-group role-scope pathgroup" role="graphics-object" aria-roledescription="group mark container"><g transform="translate(0,0)"><path class="background" aria-hidden="true" d="M0,0h600v300h-600Z"/><g><g class="mark-area role-mark marks" role="graphics-object" aria-roledescription="area mark container"><path aria-label="Sentiment: Negative; Length: 1; value: 0.0119170044159" role="graphics-symbol" aria-roledescription="area mark" d="M12,0L24,0L36,0L48,0L60,0L72,0L84.00000000000001,0L96,0L108,0L120,0L132,3.3306690738754696e-14L144,0L156,0L168.00000000000003,0L180,0L192,0L204.00000000000003,0L216,0L228,0L240,0L252,0L264,0L276,0L288,3.3306690738754696e-14L300,0L312,0L324,0L336.00000000000006,0L348,0L360,0L372,0L384,0L396,0L408.00000000000006,0L420,3.3306690738754696e-14L432,0L444,0L456,0L468,0L480,0L491.99999999999994,0L504,0L516,0L528,0L540,0L552,0L564,0L576,0L588,0L588,33.33333333333335L576,46.153846153846125L564,46.153846153846125L552,33.33333333333335L540,10.714285714285744L528,35.29411764705883L516,21.95121951219511L504,34.09090909090909L491.99999999999994,31.343283582089544L480,35.820895522388064L468,39.99999999999999L456,31.304347826086943L444,33.05084745762713L432,40.71428571428574L420,24.064171122994683L408.00000000000006,36.05150214592274L396,47.87234042553193L384,34.96932515337423L372,41.17647058823528L360,49.3472584856397L348,46.83257918552033L336.00000000000006,37.76595744680851L324,39.74151857835216L312,40.7514450867052L300,40.38461538461537L288,37.540453074433664L276,33.866415804327374L264,38.80851063829789L252,35.54502369668246L240,26.394849785407725L228,32.08860759493671L216,29.27232635060639L204.00000000000003,29.99999999999996L192,22.95988934993086L180,25.65947242206237L168.00000000000003,25.57726465364123L156,24.645618556701045L144,23.25383304940375L132,20.51282051282054L120,19.165580182529308L108,19.16714204221336L96,15.845928815212096L84.00000000000001,15.305709272506373L72,12.655253440751956L60,11.681222707423554L48,9.783294761203454L36,6.993339676498578L24,4.691833590138672L12,3.575101324783736Z" fill="#4c78a8" opacity="0.7"/></g></g><path class="foreground" aria-hidden="true" d="" display="none"/></g><g transform="translate(0,0)"><path class="background" aria-hidden="true" d="M0,0h600v300h-600Z"/><g><g class="mark-area role-mark marks" role="graphics-object" aria-roledescription="area mark container"><path aria-label="Sentiment: Somewhat Negative; Length: 1; value: 0.115842961708" role="graphics-symbol" aria-roledescription="area mark" d="M12,230.4034843627125L24,217.47688751926043L36,203.12083729781162L48,189.79591836734696L60,182.47816593886463L72,173.34676065793892L84.00000000000001,168.52476717505732L96,163.33495855680155L108,153.05191100969768L120,148.43546284224252L132,150.2262443438914L144,148.55195911413966L156,146.81056701030928L168.00000000000003,145.04440497335702L180,146.1630695443645L192,136.7911479944675L204.00000000000003,144.94897959183672L216,139.4156560088203L228,143.1645569620253L240,139.27038626609442L252,146.91943127962085L264,144.7659574468085L276,141.95672624647224L288,145.30744336569583L300,134.6153846153846L312,144.36416184971097L324,139.09531502423263L336.00000000000006,140.4255319148936L348,141.1764705882353L360,137.85900783289816L372,132.77310924369746L384,152.76073619631902L396,137.2340425531915L408.00000000000006,141.63090128755366L420,123.52941176470587L432,137.14285714285717L444,137.28813559322035L456,133.04347826086956L468,119.99999999999997L480,120.89552238805972L491.99999999999994,134.32835820895522L504,122.72727272727272L516,153.65853658536585L528,167.64705882352942L540,96.42857142857146L552,133.33333333333331L564,161.53846153846152L576,138.46153846153842L588,66.6666666666667L588,66.6666666666667L576,207.69230769230768L564,207.69230769230768L552,166.66666666666669L540,171.42857142857142L528,220.58823529411765L516,219.5121951219512L504,204.54545454545456L491.99999999999994,219.40298507462686L480,192.53731343283584L468,200L456,211.30434782608694L444,203.38983050847457L432,192.85714285714283L420,195.7219251336898L408.00000000000006,221.45922746781116L396,211.70212765957444L384,225.4601226993865L372,210.92436974789914L360,217.75456919060053L348,221.26696832579188L336.00000000000006,219.14893617021278L324,216.63974151857835L312,220.23121387283237L300,206.53846153846155L288,211.0032362459547L276,219.84948259642522L264,219.06382978723406L252,221.56398104265404L240,221.03004291845494L228,219.68354430379748L216,221.44432194046303L204.00000000000003,223.92857142857144L192,219.36376210235133L180,220.9832134292566L168.00000000000003,223.16163410301954L156,223.840206185567L144,228.4497444633731L132,225.94268476621417L120,223.53324641460233L108,223.33143183114663L96,227.45002437835203L84.00000000000001,228.69483061141852L72,228.06310842564622L60,231.98689956331876L48,235.30401851462233L36,241.07040913415796L24,251.1517719568567L12,265.15637287520417Z" fill="#72b7b2" opacity="0.7"/></g></g><path class="foreground" aria-hidden="true" d="" display="none"/></g><g transform="translate(0,0)"><path class="background" aria-hidden="true" d="M0,0h600v300h-600Z"/><g><g class="mark-area role-mark marks" role="graphics-object" aria-roledescription="area mark container"><path aria-label="Sentiment: Neutral; Length: 1; value: 0.742786280322" role="graphics-symbol" aria-roledescription="area mark" d="M12,3.575101324783736L24,4.691833590138672L36,6.993339676498578L48,9.783294761203454L60,11.681222707423554L72,12.655253440751956L84.00000000000001,15.305709272506373L96,15.845928815212096L108,19.16714204221336L120,19.165580182529308L132,20.51282051282054L144,23.25383304940375L156,24.645618556701045L168.00000000000003,25.57726465364123L180,25.65947242206237L192,22.95988934993086L204.00000000000003,29.99999999999996L216,29.27232635060639L228,32.08860759493671L240,26.394849785407725L252,35.54502369668246L264,38.80851063829789L276,33.866415804327374L288,37.540453074433664L300,40.38461538461537L312,40.7514450867052L324,39.74151857835216L336.00000000000006,37.76595744680851L348,46.83257918552033L360,49.3472584856397L372,41.17647058823528L384,34.96932515337423L396,47.87234042553193L408.00000000000006,36.05150214592274L420,24.064171122994683L432,40.71428571428574L444,33.05084745762713L456,31.304347826086943L468,39.99999999999999L480,35.820895522388064L491.99999999999994,31.343283582089544L504,34.09090909090909L516,21.95121951219511L528,35.29411764705883L540,10.714285714285744L552,33.33333333333335L564,46.153846153846125L576,46.153846153846125L588,33.33333333333335L588,66.6666666666667L576,92.3076923076923L564,115.38461538461539L552,50.00000000000002L540,21.428571428571452L528,132.35294117647058L516,80.48780487804879L504,81.81818181818181L491.99999999999994,80.59701492537313L480,85.07462686567166L468,88L456,88.69565217391303L444,94.06779661016951L432,94.28571428571428L420,67.37967914438502L408.00000000000006,106.86695278969957L396,93.61702127659575L384,94.78527607361961L372,94.11764705882352L360,104.96083550913838L348,105.20361990950225L336.00000000000006,98.93617021276594L324,103.7156704361874L312,110.11560693641619L300,102.6923076923077L288,110.67961165048544L276,109.21919096895577L264,111.31914893617022L252,111.61137440758294L240,102.14592274678112L228,110.69620253164555L216,106.83572216097022L204.00000000000003,110.51020408163265L192,105.94744121715075L180,116.90647482014388L168.00000000000003,115.41740674955597L156,120.23195876288659L144,123.25383304940377L132,125.9426847662142L120,125.03259452411993L108,131.20365088419854L96,141.24817162359824L84.00000000000001,146.6999595087056L72,153.94427660288687L60,164.9017467248908L48,174.37407952871868L36,190.50428163653666L24,208.65947611710322L12,226.41098542132963Z" fill="#f58518" opacity="0.7"/></g></g><path class="foreground" aria-hidden="true" d="" display="none"/></g><g transform="translate(0,0)"><path class="background" aria-hidden="true" d="M0,0h600v300h-600Z"/><g><g class="mark-area role-mark marks" role="graphics-object" aria-roledescription="area mark container"><path aria-label="Sentiment: Somewhat Positive; Length: 1; value: 0.116145423749" role="graphics-symbol" aria-roledescription="area mark" d="M12,265.15637287520417L24,251.1517719568567L36,241.07040913415796L48,235.30401851462233L60,231.98689956331876L72,228.06310842564622L84.00000000000001,228.69483061141852L96,227.45002437835203L108,223.33143183114663L120,223.53324641460233L132,225.94268476621417L144,228.4497444633731L156,223.840206185567L168.00000000000003,223.16163410301954L180,220.9832134292566L192,219.36376210235133L204.00000000000003,223.92857142857144L216,221.44432194046303L228,219.68354430379748L240,221.03004291845494L252,221.56398104265404L264,219.06382978723406L276,219.84948259642522L288,211.0032362459547L300,206.53846153846155L312,220.23121387283237L324,216.63974151857835L336.00000000000006,219.14893617021278L348,221.26696832579188L360,217.75456919060053L372,210.92436974789914L384,225.4601226993865L396,211.70212765957444L408.00000000000006,221.45922746781116L420,195.7219251336898L432,192.85714285714283L444,203.38983050847457L456,211.30434782608694L468,200L480,192.53731343283584L491.99999999999994,219.40298507462686L504,204.54545454545456L516,219.5121951219512L528,220.58823529411765L540,171.42857142857142L552,166.66666666666669L564,207.69230769230768L576,207.69230769230768L588,66.6666666666667L588,300L576,300L564,300L552,300L540,300L528,300L516,300L504,300L491.99999999999994,300L480,300L468,300L456,300L444,300L432,300L420,300L408.00000000000006,300L396,300L384,300L372,300L360,300L348,300L336.00000000000006,300L324,300L312,300L300,300L288,300L276,300L264,300L252,300L240,300L228,300L216,300L204.00000000000003,300L192,300L180,300L168.00000000000003,300L156,300L144,300L132,300L120,300L108,300L96,300L84.00000000000001,300L72,300L60,300L48,300L36,300L24,300L12,300Z" fill="#54a24b" opacity="0.7"/></g></g><path class="foreground" aria-hidden="true" d="" display="none"/></g><g transform="translate(0,0)"><path class="background" aria-hidden="true" d="M0,0h600v300h-600Z"/><g><g class="mark-area role-mark marks" role="graphics-object" aria-roledescription="area mark container"><path aria-label="Sentiment: Positive; Length: 1; value: 0.0133083298046" role="graphics-symbol" aria-roledescription="area mark" d="M12,226.41098542132963L24,208.65947611710322L36,190.50428163653666L48,174.37407952871868L60,164.9017467248908L72,153.94427660288687L84.00000000000001,146.6999595087056L96,141.24817162359824L108,131.20365088419854L120,125.03259452411993L132,125.9426847662142L144,123.25383304940377L156,120.2319587628866L168.00000000000003,115.41740674955597L180,116.90647482014388L192,105.94744121715075L204.00000000000003,110.51020408163265L216,106.83572216097022L228,110.69620253164555L240,102.14592274678112L252,111.61137440758294L264,111.31914893617022L276,109.21919096895577L288,110.67961165048546L300,102.6923076923077L312,110.11560693641619L324,103.7156704361874L336.00000000000006,98.93617021276594L348,105.20361990950225L360,104.96083550913838L372,94.11764705882352L384,94.78527607361961L396,93.61702127659575L408.00000000000006,106.86695278969957L420,67.37967914438502L432,94.28571428571428L444,94.06779661016951L456,88.69565217391303L468,88L480,85.07462686567166L491.99999999999994,80.59701492537313L504,81.81818181818181L516,80.48780487804879L528,132.35294117647058L540,21.428571428571452L552,50.00000000000002L564,115.38461538461537L576,92.3076923076923L588,66.6666666666667L588,66.6666666666667L576,138.46153846153842L564,161.53846153846152L552,133.33333333333331L540,96.42857142857144L528,167.64705882352942L516,153.65853658536585L504,122.72727272727272L491.99999999999994,134.32835820895522L480,120.89552238805972L468,119.99999999999997L456,133.04347826086956L444,137.28813559322035L432,137.14285714285717L420,123.52941176470587L408.00000000000006,141.63090128755366L396,137.2340425531915L384,152.76073619631902L372,132.77310924369746L360,137.85900783289816L348,141.1764705882353L336.00000000000006,140.4255319148936L324,139.09531502423263L312,144.36416184971097L300,134.6153846153846L288,145.30744336569583L276,141.95672624647224L264,144.7659574468085L252,146.91943127962085L240,139.27038626609442L228,143.1645569620253L216,139.4156560088203L204.00000000000003,144.94897959183672L192,136.7911479944675L180,146.1630695443645L168.00000000000003,145.04440497335702L156,146.81056701030928L144,148.55195911413966L132,150.2262443438914L120,148.43546284224252L108,153.05191100969768L96,163.33495855680155L84.00000000000001,168.52476717505732L72,173.34676065793892L60,182.47816593886463L48,189.79591836734696L36,203.12083729781162L24,217.47688751926043L12,230.4034843627125Z" fill="#e45756" opacity="0.7"/></g></g><path class="foreground" aria-hidden="true" d="" display="none"/></g></g><g class="mark-group role-legend" role="graphics-symbol" aria-roledescription="legend" aria-label="Symbol legend titled 'Sentiment' for fill color with 5 values: Negative, Neutral, Positive, Somewhat Negative, Somewhat Positive"><g transform="translate(618,0)"><path class="background" aria-hidden="true" d="M0,0h108v79h-108Z" pointer-events="none"/><g><g class="mark-group role-legend-entry"><g transform="translate(0,16)"><path class="background" aria-hidden="true" d="M0,0h0v0h0Z" pointer-events="none"/><g><g class="mark-group role-scope" role="graphics-object" aria-roledescription="group mark container"><g transform="translate(0,0)"><path class="background" aria-hidden="true" d="M0,0h107.29090881347656v11h-107.29090881347656Z" pointer-events="none" opacity="1"/><g><g class="mark-symbol role-legend-symbol" pointer-events="none"><path transform="translate(6,6)" d="M5,0A5,5,0,1,1,-5,0A5,5,0,1,1,5,0" fill="#4c78a8" stroke-width="1.5" opacity="0.7"/></g><g class="mark-text role-legend-label" pointer-events="none"><text text-anchor="start" transform="translate(16,9)" font-family="sans-serif" font-size="10px" fill="#000" opacity="1">Negative</text></g></g><path class="foreground" aria-hidden="true" d="" pointer-events="none" display="none"/></g><g transform="translate(0,13)"><path class="background" aria-hidden="true" d="M0,0h107.29090881347656v11h-107.29090881347656Z" pointer-events="none" opacity="1"/><g><g class="mark-symbol role-legend-symbol" pointer-events="none"><path transform="translate(6,6)" d="M5,0A5,5,0,1,1,-5,0A5,5,0,1,1,5,0" fill="#f58518" stroke-width="1.5" opacity="0.7"/></g><g class="mark-text role-legend-label" pointer-events="none"><text text-anchor="start" transform="translate(16,9)" font-family="sans-serif" font-size="10px" fill="#000" opacity="1">Neutral</text></g></g><path class="foreground" aria-hidden="true" d="" pointer-events="none" display="none"/></g><g transform="translate(0,26)"><path class="background" aria-hidden="true" d="M0,0h107.29090881347656v11h-107.29090881347656Z" pointer-events="none" opacity="1"/><g><g class="mark-symbol role-legend-symbol" pointer-events="none"><path transform="translate(6,6)" d="M5,0A5,5,0,1,1,-5,0A5,5,0,1,1,5,0" fill="#e45756" stroke-width="1.5" opacity="0.7"/></g><g class="mark-text role-legend-label" pointer-events="none"><text text-anchor="start" transform="translate(16,9)" font-family="sans-serif" font-size="10px" fill="#000" opacity="1">Positive</text></g></g><path class="foreground" aria-hidden="true" d="" pointer-events="none" display="none"/></g><g transform="translate(0,39)"><path class="background" aria-hidden="true" d="M0,0h107.29090881347656v11h-107.29090881347656Z" pointer-events="none" opacity="1"/><g><g class="mark-symbol role-legend-symbol" pointer-events="none"><path transform="translate(6,6)" d="M5,0A5,5,0,1,1,-5,0A5,5,0,1,1,5,0" fill="#72b7b2" stroke-width="1.5" opacity="0.7"/></g><g class="mark-text role-legend-label" pointer-events="none"><text text-anchor="start" transform="translate(16,9)" font-family="sans-serif" font-size="10px" fill="#000" opacity="1">Somewhat Negative</text></g></g><path class="foreground" aria-hidden="true" d="" pointer-events="none" display="none"/></g><g transform="translate(0,52)"><path class="background" aria-hidden="true" d="M0,0h107.29090881347656v11h-107.29090881347656Z" pointer-events="none" opacity="1"/><g><g class="mark-symbol role-legend-symbol" pointer-events="none"><path transform="translate(6,6)" d="M5,0A5,5,0,1,1,-5,0A5,5,0,1,1,5,0" fill="#54a24b" stroke-width="1.5" opacity="0.7"/></g><g class="mark-text role-legend-label" pointer-events="none"><text text-anchor="start" transform="translate(16,9)" font-family="sans-serif" font-size="10px" fill="#000" opacity="1">Somewhat Positive</text></g></g><path class="foreground" aria-hidden="true" d="" pointer-events="none" display="none"/></g></g></g><path class="foreground" aria-hidden="true" d="" pointer-events="none" display="none"/></g></g><g class="mark-text role-legend-title" pointer-events="none"><text text-anchor="start" transform="translate(0,9)" font-family="sans-serif" font-size="11px" font-weight="bold" fill="#000" opacity="1">Sentiment</text></g></g><path class="foreground" aria-hidden="true" d="" pointer-events="none" display="none"/></g></g></g><path class="foreground" aria-hidden="true" d="" display="none"/></g></g></g></svg>